# xmcd CD database file
#
# Track frame offsets:
#	182
#	16307
#	39337
#	54177
#	71192
#	92525
#	115060
#	129967
#	158920
#	179210
#	198680
#	217515
#	231327
#	245107
#
# Disc length: 3431 seconds
#
# Revision: 2
# Processed by: cddbd v1.4PL0 Copyright (c) Steve Scherf et al.
# Submitted via: CDex 1.50beta9
#
DISCID=bf0d650e
DTITLE=Amos Garrett - Buried Alive In The Blues
DYEAR=1982
DGENRE=Blues
TTITLE0=Home In My Shoes
TTITLE1=Move On Down The Line
TTITLE2=Don't Tell Me
TTITLE3=Smack Dab In The Middle
TTITLE4=Ha Ha In The Daytime
TTITLE5=Stanley Street
TTITLE6=Hair Of The Dog
TTITLE7=Too Many Drivers
TTITLE8=Buried Alive In The Blues
TTITLE9=What A Fool I Was
TTITLE10=Lost Love
TTITLE11=All My Money
TTITLE12=Bert's Boogie
TTITLE13=Got To Get You Off My Mind
EXTD=YEAR: 1982
EXTT0=
EXTT1=
EXTT2=
EXTT3=
EXTT4=
EXTT5=
EXTT6=
EXTT7=
EXTT8=
EXTT9=
EXTT10=
EXTT11=
EXTT12=
EXTT13=
PLAYORDER=
